<?xml version="1.0" encoding="utf-8"?>
<!-- Generator: Adobe Illustrator 27.5.0, SVG Export Plug-In . SVG Version: 6.00 Build 0)  -->
<svg version="1.1" xmlns="http://www.w3.org/2000/svg" xmlns:xlink="http://www.w3.org/1999/xlink" x="0px" y="0px"
	 viewBox="0 0 500 500" style="enable-background:new 0 0 500 500;" xml:space="preserve">
<g id="Background_Complete">
	<g>
		<rect x="416.779" y="398.494" style="fill:#EBEBEB;" width="33.122" height="0.25"/>
		<rect x="322.527" y="401.208" style="fill:#EBEBEB;" width="8.693" height="0.25"/>
		<rect x="396.586" y="389.208" style="fill:#EBEBEB;" width="19.192" height="0.25"/>
		<rect x="52.459" y="390.888" style="fill:#EBEBEB;" width="43.193" height="0.25"/>
		<rect x="104.556" y="390.888" style="fill:#EBEBEB;" width="6.333" height="0.25"/>
		<rect x="131.471" y="395.111" style="fill:#EBEBEB;" width="93.676" height="0.25"/>
		<g>
			<path style="fill:#EBEBEB;" d="M238.401,337.8H45.302c-3.147,0-5.708-2.561-5.708-5.708V60.66c0-3.147,2.561-5.708,5.708-5.708
				h193.099c3.146,0,5.707,2.561,5.707,5.708v271.432C244.108,335.239,241.547,337.8,238.401,337.8z M45.302,55.203
				c-3.01,0-5.458,2.448-5.458,5.458v271.432c0,3.01,2.448,5.458,5.458,5.458h193.099c3.009,0,5.457-2.448,5.457-5.458V60.66
				c0-3.009-2.448-5.458-5.457-5.458H45.302z"/>
			<path style="fill:#EBEBEB;" d="M454.698,337.8H261.599c-3.146,0-5.707-2.561-5.707-5.708V60.66c0-3.147,2.561-5.708,5.707-5.708
				h193.099c3.148,0,5.708,2.561,5.708,5.708v271.432C460.406,335.239,457.845,337.8,454.698,337.8z M261.599,55.203
				c-3.009,0-5.457,2.448-5.457,5.458v271.432c0,3.01,2.448,5.458,5.457,5.458h193.099c3.01,0,5.458-2.448,5.458-5.458V60.66
				c0-3.009-2.448-5.458-5.458-5.458H261.599z"/>
		</g>
		<rect y="382.398" style="fill:#EBEBEB;" width="500" height="0.25"/>
	</g>
	<g>
		<g>
			<g>
				<rect x="270.038" y="88.235" style="fill:#F5F5F5;" width="44.981" height="58.439"/>
				<rect x="273.498" y="92.731" style="fill:#EBEBEB;" width="38.06" height="49.448"/>
				<rect x="275.88" y="95.825" style="fill:#FAFAFA;" width="33.297" height="43.259"/>
			</g>
			<g>
				
					<rect x="329.41" y="111.207" transform="matrix(-1.836970e-16 1 -1 -1.836970e-16 476.1778 -213.5757)" style="fill:#E6E6E6;" width="30.934" height="40.189"/>
				
					<rect x="331.79" y="114.298" transform="matrix(-1.836970e-16 1 -1 -1.836970e-16 476.1778 -213.5757)" style="fill:#F0F0F0;" width="26.174" height="34.005"/>
				
					<rect x="333.427" y="116.426" transform="matrix(-1.836970e-16 1 -1 -1.836970e-16 476.1778 -213.5757)" style="fill:#EBEBEB;" width="22.899" height="29.75"/>
			</g>
		</g>
		<g>
			<g>
				<g>
					<polygon style="fill:#EBEBEB;" points="114.783,145.383 95.281,145.383 93.576,125.881 113.077,125.881 					"/>
					<g>
						<polygon style="fill:#EBEBEB;" points="182.062,135.633 164.321,125.881 166.027,145.383 						"/>
						<polygon style="fill:#EBEBEB;" points="182.915,145.383 187.886,145.383 186.178,125.881 181.209,125.881 						"/>
					</g>
					<g>
						<polygon style="fill:#EBEBEB;" points="134.717,135.633 150.752,125.881 152.458,145.383 						"/>
						<polygon style="fill:#EBEBEB;" points="135.57,145.383 130.599,145.383 128.894,125.881 133.863,125.881 						"/>
					</g>
					<g>
						<polygon style="fill:#EBEBEB;" points="209.385,125.517 200.663,137.277 220.164,137.277 						"/>
						<polygon style="fill:#EBEBEB;" points="221.266,145.748 220.832,140.778 200.609,140.778 201.044,145.748 						"/>
					</g>
				</g>
			</g>
			<polygon style="fill:#EBEBEB;" points="77.29,135.632 61.253,145.383 59.548,125.882 			"/>
		</g>
		<g>
			<path style="fill:#E0E0E0;" d="M381.772,206.434c3.994,0.747,11.466,1.251,20.031,1.251c8.565,0,16.037-0.503,20.031-1.251
				c0.162,0.403,0.406,0.781,0.733,1.108c1.299,1.299,3.874,0.832,4.706,0c0.832-0.832,1.3-3.406,0-4.706
				c-0.278-0.278-0.768-0.31-0.932-0.643c-1.376-2.786,1.075-8.101,1.075-13.836c0-5.733-2.45-11.047-1.075-13.833
				c0.551-1.116,1.906-1.671,1.906-2.998c0-1.327-1.356-1.882-1.906-2.998c-1.375-2.787,1.075-8.1,1.075-13.833
				c0-5.735-2.451-11.05-1.075-13.836c0.164-0.333,0.655-0.365,0.932-0.642c1.3-1.299,0.832-3.874,0-4.706
				c-0.832-0.832-3.406-1.299-4.706,0c-0.327,0.327-0.352,0.899-0.733,1.108c-3.563,1.953-11.466-1.251-20.031-1.251
				c-8.566,0-16.469,3.204-20.031,1.251c-0.381-0.209-0.406-0.781-0.733-1.108c-1.299-1.299-3.874-0.832-4.706,0
				c-0.832,0.832-1.3,3.407,0,4.706c0.278,0.278,0.768,0.309,0.932,0.642c1.377,2.786-1.075,8.101-1.075,13.836
				c0,5.733,2.45,11.047,1.075,13.833c-0.551,1.116-1.906,1.671-1.906,2.998c0,1.327,1.356,1.882,1.906,2.998
				c1.375,2.787-1.075,8.1-1.075,13.833c0,5.735,2.451,11.05,1.075,13.836c-0.165,0.333-0.655,0.365-0.932,0.643
				c-1.3,1.299-0.832,3.874,0,4.706c0.832,0.832,3.406,1.299,4.706,0C381.366,207.215,381.609,206.838,381.772,206.434z"/>
			<path style="fill:#FAFAFA;" d="M380.255,204.917c3.994,0.747,11.466,1.251,20.031,1.251c8.566,0,16.037-0.503,20.032-1.251
				c0.162,0.403,0.406,0.781,0.733,1.108c1.299,1.299,3.874,0.832,4.706,0c0.832-0.832,1.299-3.406,0-4.706
				c-0.277-0.278-0.768-0.309-0.932-0.642c-1.376-2.786,1.075-8.101,1.075-13.836c0-5.734-2.45-11.047-1.075-13.834
				c0.551-1.116,1.906-1.671,1.906-2.998c0-1.327-1.356-1.882-1.906-2.998c-1.375-2.787,1.075-8.1,1.075-13.834
				c0-5.735-2.451-11.05-1.075-13.836c0.164-0.333,0.655-0.365,0.932-0.642c1.299-1.299,0.832-3.874,0-4.706
				c-0.832-0.832-3.406-1.299-4.706,0c-0.327,0.327-0.352,0.899-0.733,1.108c-3.563,1.953-11.466-1.251-20.032-1.251
				c-8.566,0-16.468,3.204-20.031,1.251c-0.381-0.209-0.406-0.781-0.733-1.108c-1.3-1.299-3.874-0.832-4.706,0
				c-0.832,0.832-1.299,3.407,0,4.706c0.278,0.277,0.768,0.309,0.932,0.642c1.377,2.786-1.075,8.101-1.075,13.836
				c0,5.734,2.449,11.047,1.075,13.834c-0.551,1.116-1.906,1.671-1.906,2.998c0,1.327,1.356,1.882,1.906,2.998
				c1.375,2.787-1.075,8.1-1.075,13.834c0,5.735,2.451,11.05,1.075,13.836c-0.164,0.333-0.655,0.365-0.932,0.642
				c-1.299,1.299-0.832,3.874,0,4.706c0.832,0.832,3.406,1.299,4.706,0C379.848,205.698,380.092,205.321,380.255,204.917z"/>
			<rect x="380.241" y="140.132" style="fill:#EBEBEB;" width="40.09" height="59.754"/>
		</g>
		<g>
			<path style="fill:#E6E6E6;" d="M86.907,366.283c0,6.76,1.061,11.133,2.847,13.938c1.344,2.111,3.756,3.297,6.259,3.297h9.788
				c2.502,0,4.914-1.187,6.259-3.297c1.787-2.806,2.848-7.178,2.848-13.938c0-9.805-4.275-17.655-5.671-23.923
				c-0.503-2.257,1.171-9.174,1.171-9.174h-19c0,0,1.674,6.918,1.171,9.174C91.182,348.628,86.907,356.478,86.907,366.283z"/>
			<path style="fill:#F0F0F0;" d="M54.552,326.6c0-8.513,13.346-4.979,16.71-18.186c1.275-5.005-9.58-16.332-9.58-16.332h33.845
				c0,0-10.855,11.327-9.58,16.332c3.364,13.207,16.71,9.673,16.71,18.186c0,9.376-18.827,28.903-19.734,50.882
				c-0.081,1.965,3.541,6.037,3.541,6.037H70.745c0,0,3.622-4.072,3.541-6.037C73.379,355.503,54.552,335.976,54.552,326.6z"/>
			<path style="fill:#E6E6E6;" d="M64.78,348.723c-1.967-4.138,2.1-18.205,2.1-18.205H52.214c0,0,4.068,14.068,2.101,18.205
				c-1.389,2.921-4.548,4.786-4.548,8.242v20.772c0,5.379,4.401,5.781,9.781,5.781s9.781-0.401,9.781-5.781v-20.772
				C69.328,353.509,66.169,351.644,64.78,348.723z"/>
		</g>
	</g>
</g>
<g id="Background_Simple" style="display:none;">
	<g style="display:inline;">
		<path style="fill:#407BFF;" d="M97.119,232.608L269.978,86.97c26.241-22.108,65.704-17.436,86.056,10.189
			c0,0,104.372,194.922,32.719,226.803L181.38,366.103c-57.171,14.532-94.33-2.9-108.83-48.335v0
			C62.739,287.025,72.44,253.401,97.119,232.608z"/>
		<path style="opacity:0.9;fill:#FFFFFF;" d="M97.119,232.608L269.978,86.97c26.241-22.108,65.704-17.436,86.056,10.189
			c0,0,104.372,194.922,32.719,226.803L181.38,366.103c-57.171,14.532-94.33-2.9-108.83-48.335v0
			C62.739,287.025,72.44,253.401,97.119,232.608z"/>
	</g>
</g>
<g id="Shadow">
	<ellipse id="_x3C_Path_x3E__1_" style="fill:#F5F5F5;" cx="245.178" cy="412.391" rx="193.889" ry="11.323"/>
</g>
<g id="Plant">
	<g>
		<g>
			<g>
				<path style="fill:#407BFF;" d="M426.299,364.743c0.71-0.299,1.42-0.599,2.13-0.898c0.429,0.894,1.837,1.386,2.81,1.193
					c-0.012,0.017,0.267,0.239,0.255,0.255c0.273-0.677-0.046-1.493-0.62-1.946c-0.573-0.453-1.341-0.591-2.07-0.555
					c0.186-0.887,0.061-2.022-0.588-2.654c-0.471,0.276-0.703,0.987-0.775,1.528c-0.073,0.541,0.116,1.112,0.497,1.502
					c-0.867,0.091-1.586,0.664-2.318,1.138C425.894,364.465,426.026,364.586,426.299,364.743z"/>
				<path style="opacity:0.1;fill:#FFFFFF;" d="M426.299,364.743c0.71-0.299,1.42-0.599,2.13-0.898
					c0.429,0.894,1.837,1.386,2.81,1.193c-0.012,0.017,0.267,0.239,0.255,0.255c0.273-0.677-0.046-1.493-0.62-1.946
					c-0.573-0.453-1.341-0.591-2.07-0.555c0.186-0.887,0.061-2.022-0.588-2.654c-0.471,0.276-0.703,0.987-0.775,1.528
					c-0.073,0.541,0.116,1.112,0.497,1.502c-0.867,0.091-1.586,0.664-2.318,1.138C425.894,364.465,426.026,364.586,426.299,364.743z
					"/>
			</g>
			<g>
				<path style="fill:#263238;" d="M399.755,370.135c-3.298-3.541-7.505-6.23-12.103-7.736c-0.151-0.527-0.737-0.873-0.888-1.399
					c5.506,1.338,10.425,3.68,14.443,7.676C400.82,369.346,400.141,369.464,399.755,370.135z"/>
			</g>
			<g style="opacity:0.3;">
				<path style="fill:#FFFFFF;" d="M399.755,370.135c-3.298-3.541-7.505-6.23-12.103-7.736c-0.151-0.527-0.737-0.873-0.888-1.399
					c5.506,1.338,10.425,3.68,14.443,7.676C400.82,369.346,400.141,369.464,399.755,370.135z"/>
			</g>
			<g>
				<path style="fill:#407BFF;" d="M404.097,332.808c-0.571,1.41,0.289,3.451,2.076,3.405c-0.768-1.677-5.502-2.099-6.832-0.618
					c-0.573,0.638,0.087,1.797,0.772,2.317c0.686,0.52,2.316,0.885,2.316,0.885c-2.594-0.924-6.481,2.165-6.475,4.521
					c-0.752-0.475-2.421,0.037-2.662,0.99c-0.282,1.112,0.419,2.311,2.308,2.063c-1.041,0.862-1.27,1.527-1.502,2.259
					c-0.519,1.639-0.349,3.188,1.5,3.599c0.535,0.119,1.289-0.013,1.901-0.439c-2.228,0.766-3.92,2.431-3.208,4.063
					c0.328,0.893,2.159,0.546,2.159,0.546c-3.585,2.937-1.339,3.206-0.733,3.475c-1.16,1.073-0.255,2.839,1.447,2.972
					c2.052,0.16,1.477-0.308,2.82-0.182c0,0,0,0,0,0.001c-0.432,1.249,0.626,2.47,1.878,2.071c2.014-0.642,3.809-1.767,4.748-3.297
					c-0.346,0.773-0.111,1.972,0.89,1.823c1.851,0.149,2.926-1.269,4.009-2.29c0.905,1.68,2.66,2.438,4.767,2.7
					c1.382,0.172,2.819-0.402,3.528-1.6c0.668-1.13,0.54-2.39-0.628-3.49c0.597,0.4,1.361,0.685,2.174,0.834
					c0.928,0.171,1.523-0.967,0.875-1.654c-0.356-0.377-0.639-0.773-0.801-1.124c1.02,0.329,2.19,0.285,3.316,0.053
					c1.478-0.304,2.152-2.045,1.2-3.215c-0.915-1.124-2.546-1.947-4.125-1.866c2.685-0.303,3.33-0.289,5.476-1.868
					c0.633-0.905,0.795-2.294-0.154-2.937c-0.949-0.643-2.486-0.614-3.453,0.065c1.376-1.328,1.801-2.981,1.673-4.665
					c-0.132-1.738-2.277-2.448-3.453-1.161c-0.869,0.952-1.326,2.102-1.062,3.274c0.732-1.682,0.966-3.337,0.852-5.036
					c-0.078-1.157-0.912-2.123-2.05-2.349c-2.408-0.478-5.221-0.111-5.412,1.761C414.698,333.308,406.59,331.437,404.097,332.808z"
					/>
				<path style="opacity:0.2;" d="M404.097,332.808c-0.571,1.41,0.289,3.451,2.076,3.405c-0.768-1.677-5.502-2.099-6.832-0.618
					c-0.573,0.638,0.087,1.797,0.772,2.317c0.686,0.52,2.316,0.885,2.316,0.885c-2.594-0.924-6.481,2.165-6.475,4.521
					c-0.752-0.475-2.421,0.037-2.662,0.99c-0.282,1.112,0.419,2.311,2.308,2.063c-1.041,0.862-1.27,1.527-1.502,2.259
					c-0.519,1.639-0.349,3.188,1.5,3.599c0.535,0.119,1.289-0.013,1.901-0.439c-2.228,0.766-3.92,2.431-3.208,4.063
					c0.328,0.893,2.159,0.546,2.159,0.546c-3.585,2.937-1.339,3.206-0.733,3.475c-1.16,1.073-0.255,2.839,1.447,2.972
					c2.052,0.16,1.477-0.308,2.82-0.182c0,0,0,0,0,0.001c-0.432,1.249,0.626,2.47,1.878,2.071c2.014-0.642,3.809-1.767,4.748-3.297
					c-0.346,0.773-0.111,1.972,0.89,1.823c1.851,0.149,2.926-1.269,4.009-2.29c0.905,1.68,2.66,2.438,4.767,2.7
					c1.382,0.172,2.819-0.402,3.528-1.6c0.668-1.13,0.54-2.39-0.628-3.49c0.597,0.4,1.361,0.685,2.174,0.834
					c0.928,0.171,1.523-0.967,0.875-1.654c-0.356-0.377-0.639-0.773-0.801-1.124c1.02,0.329,2.19,0.285,3.316,0.053
					c1.478-0.304,2.152-2.045,1.2-3.215c-0.915-1.124-2.546-1.947-4.125-1.866c2.685-0.303,3.33-0.289,5.476-1.868
					c0.633-0.905,0.795-2.294-0.154-2.937c-0.949-0.643-2.486-0.614-3.453,0.065c1.376-1.328,1.801-2.981,1.673-4.665
					c-0.132-1.738-2.277-2.448-3.453-1.161c-0.869,0.952-1.326,2.102-1.062,3.274c0.732-1.682,0.966-3.337,0.852-5.036
					c-0.078-1.157-0.912-2.123-2.05-2.349c-2.408-0.478-5.221-0.111-5.412,1.761C414.698,333.308,406.59,331.437,404.097,332.808z"
					/>
			</g>
			<g>
				<g>
					<g>
						<path style="fill:#263238;" d="M414.325,358.875c-1.051,3.091-3.623,5.623-6.73,6.626c-1.099,0.355-2.287,0.544-3.221,1.223
							c-0.009,0.007-0.019,0.014-0.028,0.021c-1.254,0.94-0.831,2.932,0.65,3.441c1.802,0.619,3.569,1.359,4.997,2.601
							c1.794,1.56,2.888,4.452,2.063,6.682c-1.418,1.161-4.061,0.644-5.337-0.672c-0.444-2.379-2.961-3.675-5.174-4.655
							c-2.614-1.157-5.626-2.891-4.961-6.181c0.297-1.469,1.795-2.992,3.229-3.424c10.365-3.12,11.433-8.122,11.433-8.122
							c1.188,0,1.432-0.431,2.62-0.431C414.543,356.748,414.653,357.908,414.325,358.875z"/>
						<g>
							<path style="opacity:0.3;fill:#FFFFFF;" d="M414.325,358.875c-1.051,3.091-3.623,5.623-6.73,6.626
								c-1.099,0.355-2.287,0.544-3.221,1.223c-0.009,0.007-0.019,0.014-0.028,0.021c-1.254,0.94-0.831,2.932,0.65,3.441
								c1.802,0.619,3.569,1.359,4.997,2.601c1.794,1.56,2.888,4.452,2.063,6.682c-1.418,1.161-4.061,0.644-5.337-0.672
								c-0.444-2.379-2.961-3.675-5.174-4.655c-2.614-1.157-5.626-2.891-4.961-6.181c0.297-1.469,1.795-2.992,3.229-3.424
								c10.365-3.12,11.433-8.122,11.433-8.122c1.188,0,1.432-0.431,2.62-0.431C414.543,356.748,414.653,357.908,414.325,358.875z"
								/>
						</g>
						<path style="fill:#263238;" d="M387.282,386.688l13.711-6.795c5.433-2.693,11.398-2.819,16.893-0.359l15.977,7.154h0
							C419.124,393.681,402.022,393.681,387.282,386.688L387.282,386.688z"/>
						<g>
							<path style="fill:#407BFF;" d="M437.68,403.76l-0.051,0.146c-1.077,3.098-3.998,5.174-7.278,5.174h-39.654
								c-3.285,0-6.209-2.083-7.282-5.187l-0.046-0.133c-1.25-3.58-1.28-7.47-0.09-11.06l1.93-5.85h50.62l1.93,5.85
								C438.95,396.29,438.92,400.18,437.68,403.76z"/>
						</g>
						<g>
							<path style="fill:#407BFF;" d="M437.68,403.76l-0.051,0.146c-1.077,3.098-3.998,5.174-7.278,5.174h-39.654
								c-3.285,0-6.209-2.083-7.282-5.187l-0.046-0.133c-1.25-3.58-1.28-7.47-0.09-11.06l1.93-5.85h50.62l1.93,5.85
								C438.95,396.29,438.92,400.18,437.68,403.76z"/>
						</g>
						<g style="opacity:0.6;">
							<path style="fill:#FFFFFF;" d="M437.68,403.76l-0.051,0.146c-1.077,3.098-3.998,5.174-7.278,5.174h-39.654
								c-3.285,0-6.209-2.083-7.282-5.187l-0.046-0.133c-1.25-3.58-1.28-7.47-0.09-11.06l1.93-5.85h50.62l1.93,5.85
								C438.95,396.29,438.92,400.18,437.68,403.76z"/>
						</g>
						<path style="fill:#263238;" d="M409.649,376.005c2.421-3.279,5.841-5.81,9.684-7.167c0.293-0.103,0.741-0.838,0.479-1.004
							c-3.397,0.776-6.666,2.047-9.595,3.934c-1.085,0.699-2.241,1.791-2.685,3.003
							C408.226,375.695,408.493,376.021,409.649,376.005z"/>
						<path style="opacity:0.3;fill:#FFFFFF;" d="M409.649,376.005c2.421-3.279,5.841-5.81,9.684-7.167
							c0.293-0.103,0.741-0.838,0.479-1.004c-3.397,0.776-6.666,2.047-9.595,3.934c-1.085,0.699-2.241,1.791-2.685,3.003
							C408.226,375.695,408.493,376.021,409.649,376.005z"/>
					</g>
				</g>
			</g>
			<path style="fill:#407BFF;" d="M406.662,329.455c-0.571,1.41,0.289,3.451,2.076,3.405c-0.768-1.677-5.502-2.099-6.832-0.618
				c-0.573,0.638,0.087,1.797,0.772,2.317c0.686,0.52,2.316,0.885,2.316,0.885c-2.594-0.924-6.481,2.165-6.475,4.521
				c-0.752-0.475-2.421,0.037-2.662,0.99c-0.282,1.112,0.419,2.311,2.308,2.063c-1.042,0.862-1.27,1.527-1.502,2.259
				c-0.519,1.639-0.349,3.188,1.501,3.599c0.535,0.119,1.289-0.013,1.901-0.439c-2.228,0.766-3.92,2.431-3.208,4.063
				c0.328,0.893,2.159,0.546,2.159,0.546c-3.585,2.937-1.339,3.206-0.733,3.475c-1.16,1.073-0.255,2.839,1.447,2.973
				c2.052,0.16,1.477-0.308,2.82-0.182c0,0,0,0,0,0.001c-0.432,1.249,0.626,2.47,1.878,2.071c2.014-0.642,3.809-1.767,4.748-3.297
				c-0.346,0.773-0.111,1.972,0.89,1.823c1.851,0.149,2.926-1.269,4.009-2.29c0.905,1.68,2.66,2.438,4.767,2.7
				c1.382,0.171,2.819-0.402,3.528-1.601c0.668-1.129,0.54-2.39-0.628-3.49c0.597,0.4,1.361,0.685,2.174,0.834
				c0.928,0.17,1.523-0.967,0.875-1.654c-0.355-0.377-0.639-0.773-0.801-1.124c1.02,0.329,2.19,0.285,3.316,0.053
				c1.478-0.304,2.152-2.045,1.2-3.215c-0.915-1.124-2.546-1.947-4.125-1.866c2.685-0.303,3.33-0.289,5.476-1.868
				c0.633-0.905,0.795-2.294-0.154-2.937c-0.949-0.643-2.486-0.614-3.453,0.065c1.376-1.328,1.801-2.981,1.673-4.665
				c-0.132-1.738-2.277-2.448-3.453-1.161c-0.869,0.952-1.327,2.102-1.062,3.274c0.732-1.682,0.966-3.337,0.852-5.036
				c-0.078-1.157-0.912-2.123-2.05-2.349c-2.408-0.478-5.221-0.111-5.412,1.761C417.263,329.955,409.154,328.084,406.662,329.455z"
				/>
			<g>
				<path style="fill:#407BFF;" d="M418.481,365.508c-1.004-0.569-2.281-0.626-3.331-0.149c0.141,1.055,0.909,2.003,1.912,2.359
					c-0.8-0.136-1.797,0.368-2.161,1.093c-0.363,0.725-0.197,1.679,0.391,2.238c0.085-0.018,0.148-0.022,0.233-0.04
					c-0.445,0.58-0.438,1.463,0.015,2.036c0.453,0.574,1.31,0.784,1.978,0.485c0.469,0.601,1.214,1.107,1.976,1.123
					c0.762,0.016,1.524-0.326,2.018-0.907c-0.13,0.606,0.612,1.396,1.192,1.615c0.58,0.219,1.251,0.078,1.779-0.248
					c0.528-0.326,0.933-0.816,1.287-1.325c1.313-1.883,0.876-4.687-0.678-6.376C423.538,365.723,420.765,365.283,418.481,365.508z"
					/>
				<path style="opacity:0.2;" d="M418.481,365.508c-1.004-0.569-2.281-0.626-3.331-0.149c0.141,1.055,0.909,2.003,1.912,2.359
					c-0.8-0.136-1.797,0.368-2.161,1.093c-0.363,0.725-0.197,1.679,0.391,2.238c0.085-0.018,0.148-0.022,0.233-0.04
					c-0.445,0.58-0.438,1.463,0.015,2.036c0.453,0.574,1.31,0.784,1.978,0.485c0.469,0.601,1.214,1.107,1.976,1.123
					c0.762,0.016,1.524-0.326,2.018-0.907c-0.13,0.606,0.612,1.396,1.192,1.615c0.58,0.219,1.251,0.078,1.779-0.248
					c0.528-0.326,0.933-0.816,1.287-1.325c1.313-1.883,0.876-4.687-0.678-6.376C423.538,365.723,420.765,365.283,418.481,365.508z"
					/>
			</g>
			<path style="fill:#407BFF;" d="M422.173,363.034c-0.544-2.189,1.12-2.975,2.182-2.975c0.995,0.294,2.573,1.222,2.654,2.256
				s-0.531,2.088-1.468,2.532c0.991-0.903,3.823-0.222,4.227,1.056c0.404,1.278-1.173,2.72-2.352,2.084
				c1.965-0.044,4.239,2.694,4.027,4.648c-1.097,1.385-3.549,1.288-4.707-0.046c0.964,0.636,1.869,2.385,1.263,3.368
				c-0.606,0.983-2.035,1.345-3.036,0.768c-1.535-0.884-2.355-2.707-1.195-4.046c-1.764-0.098-3.013,0.581-3.948,2.08
				c-0.705-1.217,0.164-3.084,1.395-3.765c-1.764-0.922-3.428-1.819-5.364-1.358c0.43-1.303,1.425-2.937,2.767-3.223
				c1.342-0.286,2.819,0.189,3.743,1.204c-2.373-0.273-4.02-2.309-4.328-4.677C419.038,361.942,422.457,363.235,422.173,363.034z"/>
			<g>
				<g>
					<path style="fill:#407BFF;" d="M381.596,354.719c-0.433-0.124-0.961-0.148-1.27,0.18c-0.288,0.306-0.255,0.812-0.04,1.173
						c0.215,0.361,0.572,0.61,0.919,0.847c-0.855-0.075-1.492,0.987-1.215,1.8c0.276,0.813,1.17,1.284,2.027,1.333
						c-0.486,0.543-0.119,1.495,0.542,1.802c0.661,0.307,1.448,0.13,2.111-0.173c0.663-0.302,1.276-0.725,1.975-0.93
						c0.086,0.368,0.176,0.745,0.386,1.058c0.21,0.314,0.57,0.556,0.946,0.517c0.376-0.039,0.704-0.44,0.579-0.797
						c0.503,0.504,1.126,0.888,1.801,1.113c0.192,0.064,0.408,0.114,0.593,0.03c0.321-0.146,0.352-0.608,0.202-0.927
						c-0.15-0.319-0.422-0.567-0.577-0.884c-0.154-0.317-0.135-0.777,0.181-0.934c1.355-0.553,2.546-1.5,3.392-2.695
						c0.174-0.247,0.336-0.583,0.166-0.832c-0.141-0.207-0.434-0.232-0.684-0.222c-0.901,0.035-1.795,0.243-2.619,0.611
						c-0.086-0.585,0.157-1.161,0.307-1.733s0.184-1.255-0.228-1.679c-0.458-0.471-1.279-0.379-1.799,0.021
						c-0.521,0.4-0.814,1.02-1.089,1.616c-0.286-0.65-0.765-1.24-1.413-1.533c-0.648-0.293-1.473-0.238-2.001,0.238
						c-0.528,0.476-0.639,1.389-0.155,1.91c-0.717,0.195-0.94,0.354-1.513-0.071C382.636,355.199,382.185,354.887,381.596,354.719z"
						/>
					<path style="opacity:0.2;" d="M381.596,354.719c-0.433-0.124-0.961-0.148-1.27,0.18c-0.288,0.306-0.255,0.812-0.04,1.173
						c0.215,0.361,0.572,0.61,0.919,0.847c-0.855-0.075-1.492,0.987-1.215,1.8c0.276,0.813,1.17,1.284,2.027,1.333
						c-0.486,0.543-0.119,1.495,0.542,1.802c0.661,0.307,1.448,0.13,2.111-0.173c0.663-0.302,1.276-0.725,1.975-0.93
						c0.086,0.368,0.176,0.745,0.386,1.058c0.21,0.314,0.57,0.556,0.946,0.517c0.376-0.039,0.704-0.44,0.579-0.797
						c0.503,0.504,1.126,0.888,1.801,1.113c0.192,0.064,0.408,0.114,0.593,0.03c0.321-0.146,0.352-0.608,0.202-0.927
						c-0.15-0.319-0.422-0.567-0.577-0.884c-0.154-0.317-0.135-0.777,0.181-0.934c1.355-0.553,2.546-1.5,3.392-2.695
						c0.174-0.247,0.336-0.583,0.166-0.832c-0.141-0.207-0.434-0.232-0.684-0.222c-0.901,0.035-1.795,0.243-2.619,0.611
						c-0.086-0.585,0.157-1.161,0.307-1.733s0.184-1.255-0.228-1.679c-0.458-0.471-1.279-0.379-1.799,0.021
						c-0.521,0.4-0.814,1.02-1.089,1.616c-0.286-0.65-0.765-1.24-1.413-1.533c-0.648-0.293-1.473-0.238-2.001,0.238
						c-0.528,0.476-0.639,1.389-0.155,1.91c-0.717,0.195-0.94,0.354-1.513-0.071C382.636,355.199,382.185,354.887,381.596,354.719z"
						/>
				</g>
				<path style="fill:#407BFF;" d="M389.295,361.352c-0.502-2.154-1.073-2.47,0.705-3.785c1.452,0.22,2.999-0.33,3.987-1.417
					c0.988-1.087,1.461-2.856,1.104-4.281c-2.671,0.761-4.9,3.045-6.137,5.531c0.688-1.187,0.72-2.728,0.081-3.942
					c-0.639-1.214-1.418-1.606-2.786-1.711l-0.033,0.235c-0.136,0.959,0.262,1.873,0.929,2.576c0.794,0.836,1.044,2.295,0.591,3.425
					c-0.634,1.582,0.27,0.775-1.172,1.681c0.921-1.372,0.496-3.262-1.013-3.935c-1.641,1.04-2.524,3.385-1.802,5.189
					c-0.665-1.452-2.156-2.571-3.3-2.326c-0.713,0.153-3.249,1.715-3.039,3.826c1.545-1.021,1.995-0.872,3.712-0.179
					c1.717,0.693,3.051,2.265,3.455,4.072C387.222,366.327,389.896,363.93,389.295,361.352z"/>
				<path style="fill:#407BFF;" d="M383.33,353.12c-0.099,1.283,0.504,2.599,1.54,3.362c1.036,0.764,2.471,0.95,3.667,0.477
					c-0.39-0.664-0.789-1.275-1.187-1.885c-0.872-1.336-2.398-2.066-3.989-1.956L383.33,353.12z"/>
				<path style="opacity:0.1;fill:#FFFFFF;" d="M383.33,353.12c-0.099,1.283,0.504,2.599,1.54,3.362
					c1.036,0.764,2.471,0.95,3.667,0.477c-0.39-0.664-0.789-1.275-1.187-1.885c-0.872-1.336-2.398-2.066-3.989-1.956L383.33,353.12z
					"/>
				<path style="fill:#407BFF;" d="M388.587,358.902c0.162,1.534,1.495,2.862,3.029,3.019c0.425-1.443-0.44-3.267-1.875-3.718
					C389.299,358.064,388.539,358.441,388.587,358.902z"/>
				<path style="fill:#407BFF;" d="M389.261,363.269c-0.913,0.383-1.521,1.393-1.432,2.38c0.089,0.986,0.869,1.871,1.836,2.083
					C390.974,366.512,390.56,364.5,389.261,363.269z"/>
				<path style="fill:#407BFF;" d="M381.4,366.682c-0.216-1.496,0.891-3.063,2.373-3.359c0.738,0.782,0.733,1.759,0.136,2.654
					C383.313,366.873,382.406,367.063,381.4,366.682z"/>
				<path style="opacity:0.1;fill:#FFFFFF;" d="M381.4,366.682c-0.216-1.496,0.891-3.063,2.373-3.359
					c0.738,0.782,0.733,1.759,0.136,2.654C383.313,366.873,382.406,367.063,381.4,366.682z"/>
			</g>
		</g>
		<path style="opacity:0.1;fill:#FFFFFF;" d="M416.162,337.145c-0.268-0.619-0.552-1.26-1.064-1.7
			c-0.511-0.44-1.319-0.614-1.86-0.211c-0.492,0.367-0.599,1.051-0.64,1.663c-0.03,0.447-0.044,0.906,0.091,1.333
			c0.135,0.427,0.446,0.823,0.877,0.946c-0.52-0.211-1.277-0.297-1.836-0.246s-1.128,0.461-1.156,1.022
			c-0.023,0.467,0.336,0.885,0.762,1.079c0.426,0.194,0.908,0.211,1.375,0.226c-0.796,0.371-1.252,0.984-1.403,1.849
			c-0.05,0.284-0.036,0.618,0.184,0.804c0.209,0.176,0.517,0.147,0.784,0.09c0.86-0.184,1.676-0.567,2.367-1.111
			c-0.089,0.455-0.238,0.83-0.121,1.279c0.117,0.449,0.505,0.863,0.969,0.849c0.417-0.013,0.76-0.367,0.895-0.761
			c0.135-0.394,0.106-0.823,0.076-1.239c0.37,0.047,0.469,0.432,0.634,0.766c0.451,0.915,1.473,1.536,2.489,1.451
			s1.943-0.912,2.081-1.923c0.139-1.011-0.577-2.085-1.577-2.289c0.599-0.167,1.117-0.251,1.73-0.148
			c0.613,0.104,1.339,0.067,1.724-0.421c0.36-0.456,0.251-1.17-0.147-1.593c-0.398-0.424-1.012-0.589-1.592-0.569
			c-0.581,0.021-1.142,0.205-1.693,0.387c0.564-0.046,0.631-0.963,0.399-1.48c-0.232-0.517-0.883-0.759-1.435-0.631
			S416.433,336.647,416.162,337.145z"/>
		<path style="opacity:0.1;fill:#FFFFFF;" d="M408.24,347.136c-0.771-0.025-1.584-0.041-2.264,0.325
			c-0.679,0.366-1.14,1.258-0.768,1.933c0.274,0.497,0.904,0.71,1.47,0.655s1.084-0.324,1.587-0.588
			c-0.315,0.612-0.275,1.451,0.249,1.898c0.524,0.447,1.519,0.219,1.648-0.457c0.381,0.468,0.549,1.067,0.769,1.629
			c0.219,0.562,0.531,1.136,1.069,1.408c0.538,0.273,1.338,0.078,1.499-0.503c0.04-0.145,0.042-0.307,0.13-0.43
			c0.171-0.237,0.55-0.173,0.786-0.001c0.236,0.172,0.415,0.426,0.682,0.544c0.556,0.245,1.21-0.256,1.358-0.845
			c0.148-0.589-0.053-1.203-0.252-1.777c-0.182-0.524-0.374-1.065-0.753-1.471c-0.379-0.406-0.999-0.641-1.503-0.41
			s-0.689,1.032-0.24,1.358c-0.132-0.562-0.75-0.83-1.302-0.998c-0.552-0.168-1.143-0.138-1.719-0.107
			c0.442-0.605,0.193-1.494-0.311-2.048C409.868,346.698,408.883,346.752,408.24,347.136z"/>
		<path style="opacity:0.1;fill:#FFFFFF;" d="M419.732,348.276c-1.132,0.86-1.774,2.267-1.544,3.67
			c0.001,0.009,0.003,0.017,0.004,0.026c0.082,0.488,0.265,1.035,0.724,1.217c0.51,0.203,1.101-0.19,1.313-0.697
			c0.212-0.507,0.148-1.081,0.081-1.626c0.179,0.436,0.29,0.549,0.678,0.818c0.388,0.268,0.974,0.302,1.299-0.04
			c0.325-0.342,0.144-1.05-0.327-1.085c0.881,0.355,2.067,0.219,2.96-0.107c0.302-0.111,0.623-0.299,0.689-0.614
			c0.084-0.399-0.288-0.749-0.657-0.922c-0.369-0.174-0.798-0.286-1.042-0.613c0.466-0.168,0.634-0.661,0.814-1.122
			c0.181-0.461,0.031-1.065-0.408-1.294c-0.485-0.253-1.068,0.011-1.546,0.277C421.702,346.756,420.72,347.526,419.732,348.276z"/>
		<path style="opacity:0.1;fill:#FFFFFF;" d="M409.24,338.061c-1.573-0.361-3.275-0.131-4.696,0.634
			c-0.351,0.189-0.698,0.423-0.897,0.769c-0.199,0.346-0.206,0.829,0.078,1.11c-0.558-0.405-1.694-0.235-1.97,0.397
			s0.158,1.465,0.834,1.6c-0.767,0.102-1.104,1.018-0.829,1.741c0.275,0.724,1.049,1.16,1.817,1.258
			c0.768,0.098,1.541-0.083,2.294-0.262c0.517-0.702-0.024-2.145-0.874-2.343c0.382,0.17,0.668-0.15,0.895-0.502
			c0.227-0.352,0.156-0.865-0.157-1.143c1.319,0.645,3.085-0.225,3.762-1.528C409.774,339.258,409.827,338.195,409.24,338.061z"/>
	</g>
</g>
<g id="Furniture">
	<path style="fill:#407BFF;" d="M192.506,391.013c0,1.626-1.318,2.944-2.944,2.944c-1.626,0-2.944-1.318-2.944-2.944
		s1.318-2.944,2.944-2.944C191.188,388.069,192.506,389.387,192.506,391.013z"/>
	<g>
		<g>
			<g>
				<g>
					<g>
						<rect x="57.278" y="406.064" style="fill:#263238;" width="8.745" height="3.686"/>
						<rect x="238.096" y="406.064" style="fill:#263238;" width="8.745" height="3.686"/>
					</g>
					<rect x="55.742" y="345.296" style="fill:#407BFF;" width="192.949" height="61.611"/>
				</g>
				<rect x="55.742" y="345.296" style="opacity:0.2;" width="15.802" height="61.611"/>
			</g>
			<g>
				<g>
					<rect x="76.293" y="378.141" style="opacity:0.3;fill:#FFFFFF;" width="168.158" height="21.737"/>
					<circle style="fill:#407BFF;" cx="160.132" cy="389.935" r="2.944"/>
				</g>
				<g>
					<rect x="76.293" y="351.968" style="opacity:0.3;fill:#FFFFFF;" width="168.158" height="21.737"/>
					<path style="fill:#407BFF;" d="M163.076,363.761c0,1.626-1.318,2.944-2.944,2.944s-2.944-1.318-2.944-2.944
						s1.318-2.944,2.944-2.944S163.076,362.135,163.076,363.761z"/>
				</g>
			</g>
		</g>
	</g>
</g>
<g id="Device_1_">
	<g>
		<g>
			<g>
				<path style="fill:#263238;" d="M133.171,342.66v1.239c0,0.641,0.52,1.161,1.161,1.161h44.416c0.591,0,1.07-0.479,1.07-1.07
					v-1.192c0-0.591-0.479-1.07-1.07-1.07h-11.046c-1.255,0-2.207-1.131-1.993-2.367l3.874-22.385h-25.228l-10.802,23.902
					C133.302,341.439,133.171,342.046,133.171,342.66z"/>
				<path style="opacity:0.2;fill:#FFFFFF;" d="M179.818,342.796v1.197c0,0.592-0.475,1.067-1.068,1.067h-44.416
					c-0.642,0-1.166-0.524-1.166-1.16v-1.24c0-0.327,0.037-0.654,0.111-0.975c0.068-0.278,0.154-0.549,0.272-0.808l10.805-23.898
					h25.231l-3.875,22.381c-0.024,0.136-0.037,0.265-0.031,0.395c0.018,0.938,0.697,1.746,1.604,1.931
					c0.136,0.031,0.272,0.043,0.419,0.043h11.046C179.343,341.728,179.818,342.21,179.818,342.796z"/>
				<g>
					<g>
						<path style="fill:#263238;" d="M132.127,340.879l10.802-23.902h1.428l-10.802,23.902c-0.253,0.56-0.384,1.167-0.384,1.782
							v1.239c0,0.641,0.52,1.161,1.161,1.161h-1.428c-0.641,0-1.162-0.52-1.162-1.161v-1.239
							C131.743,342.046,131.874,341.439,132.127,340.879z"/>
					</g>
				</g>
				<polygon style="opacity:0.2;" points="144.357,316.977 169.585,316.977 168.596,322.688 141.776,322.688 				"/>
			</g>
			<path style="opacity:0.3;fill:#FFFFFF;" d="M140.846,342.804v1.137c0,0.618,0.501,1.119,1.119,1.119h36.785
				c0.591,0,1.069-0.479,1.069-1.069v-1.192c0-0.591-0.479-1.069-1.069-1.069h-11.048c-0.143,0-0.281-0.015-0.414-0.044h-25.324
				C141.347,341.685,140.846,342.186,140.846,342.804z"/>
			<path style="opacity:0.2;" d="M133.282,341.685h34.006c-0.912-0.182-1.587-0.991-1.606-1.932H134.15L133.282,341.685z"/>
		</g>
		<g>
			<g>
				<g>
					<path style="fill:#263238;" d="M71.983,319.57h172.875c3.49,0,6.072-2.83,5.767-6.32L239.696,188.33
						c-0.305-3.49-3.382-6.32-6.873-6.32H59.949c-3.49,0-6.072,2.829-5.767,6.32L65.111,313.25
						C65.416,316.74,68.493,319.57,71.983,319.57z"/>
				</g>
				<path style="fill:#407BFF;" d="M249.443,299.741l1.182,13.509c0.305,3.49-2.277,6.32-5.767,6.32H71.983
					c-3.49,0-6.568-2.829-6.873-6.32l-1.182-13.509H249.443z"/>
				<path style="opacity:0.6;fill:#FFFFFF;" d="M249.443,299.741l1.182,13.509c0.305,3.49-2.277,6.32-5.767,6.32H71.983
					c-3.49,0-6.568-2.829-6.873-6.32l-1.182-13.509H249.443z"/>
			</g>
			<path style="fill:#407BFF;" d="M70.03,295.926h172.645c1.893,0,3.293-1.534,3.127-3.427l-9.033-103.246
				c-0.166-1.893-1.834-3.427-3.727-3.427H60.397c-1.893,0-3.293,1.534-3.127,3.427l9.033,103.246
				C66.469,294.391,68.137,295.926,70.03,295.926z"/>
			<path style="opacity:0.7;" d="M70.03,295.926h172.645c1.893,0,3.293-1.534,3.127-3.427l-9.033-103.246
				c-0.166-1.893-1.834-3.427-3.727-3.427H60.397c-1.893,0-3.293,1.534-3.127,3.427l9.033,103.246
				C66.469,294.391,68.137,295.926,70.03,295.926z"/>
			<g>
				<path style="fill:#407BFF;" d="M56.126,182.01h3.822c-3.49,0-6.072,2.83-5.767,6.32L65.111,313.25
					c0.305,3.49,3.382,6.32,6.873,6.32h-3.822c-3.49,0-6.568-2.829-6.873-6.32L50.359,188.33
					C50.054,184.84,52.636,182.01,56.126,182.01z"/>
			</g>
			<g style="opacity:0.4;">
				<path d="M56.126,182.01h3.822c-3.49,0-6.072,2.83-5.767,6.32L65.111,313.25c0.305,3.49,3.382,6.32,6.873,6.32h-3.822
					c-3.49,0-6.568-2.829-6.873-6.32L50.359,188.33C50.054,184.84,52.636,182.01,56.126,182.01z"/>
				<path style="opacity:0.9;fill:#FFFFFF;" d="M56.126,182.01h3.822c-3.49,0-6.072,2.83-5.767,6.32L65.111,313.25
					c0.305,3.49,3.382,6.32,6.873,6.32h-3.822c-3.49,0-6.568-2.829-6.873-6.32L50.359,188.33
					C50.054,184.84,52.636,182.01,56.126,182.01z"/>
			</g>
			<g>
				<g>
					<g>
						<polygon style="fill:#263238;" points="241.874,295.926 70.957,295.926 62.123,194.956 233.04,194.956 						"/>
						<polygon style="opacity:0.2;fill:#FFFFFF;" points="241.874,295.926 70.957,295.926 62.123,194.956 233.04,194.956 						"/>
					</g>
					<g>
						<path style="fill:#407BFF;" d="M239.061,295.631l-47.259-41.075c-4.485-3.898-10.227-3.898-12.826,0l-27.385,41.075H239.061z"
							/>
						<path style="opacity:0.2;fill:#FFFFFF;" d="M191.802,254.556l47.258,41.075h-45.31c4.52-2.289,15.16-3.504,13.894-8.736
							c-1.646-6.807-22.718-4.424-24.282-10.891c-1.564-6.467,13.464-4.425,11.571-12.253c-0.995-4.113-4.883-8.568-8.364-11.903
							C188.338,252.229,190.155,253.124,191.802,254.556z"/>
					</g>
					<g>
						<path style="fill:#407BFF;" d="M169.528,295.631l-20.948-20.722c-1.988-1.966-4.533-1.966-5.685,0l-12.138,20.722H169.528z"/>
						<path style="opacity:0.2;fill:#FFFFFF;" d="M148.58,274.909l20.948,20.722h-20.084c2.004-1.155,6.72-1.768,6.159-4.407
							c-0.73-3.434-10.07-2.232-10.763-5.495c-0.693-3.262,5.968-2.232,5.129-6.181c-0.441-2.075-2.164-4.323-3.707-6.005
							C147.045,273.735,147.85,274.187,148.58,274.909z"/>
					</g>
					<g>
						<path style="fill:#407BFF;" d="M133.683,295.631l-29.348-20.722c-2.785-1.966-6.351-1.966-7.965,0l-17.006,20.722H133.683z"/>
						<path style="opacity:0.2;fill:#FFFFFF;" d="M104.335,274.909l29.348,20.722h-28.138c2.807-1.155,9.415-1.768,8.629-4.407
							c-1.022-3.434-14.108-2.232-15.08-5.495c-0.971-3.262,8.362-2.232,7.186-6.181c-0.618-2.075-3.032-4.323-5.194-6.005
							C102.183,273.735,103.311,274.187,104.335,274.909z"/>
					</g>
					<g>
						<path style="fill:#F0F0F0;" d="M100.554,253.886c1.307,6.148,7.35,11.131,13.497,11.131c6.148,0,10.072-4.983,8.765-11.131
							c-1.307-6.148-7.35-11.131-13.497-11.131C103.172,242.755,99.248,247.739,100.554,253.886z"/>
						<path style="fill:#407BFF;" d="M100.554,253.886c1.307,6.148,7.35,11.131,13.497,11.131c6.148,0,10.072-4.983,8.765-11.131
							c-1.307-6.148-7.35-11.131-13.497-11.131C103.172,242.755,99.248,247.739,100.554,253.886z"/>
						<path style="opacity:0.5;fill:#FFFFFF;" d="M100.554,253.886c1.307,6.148,7.35,11.131,13.497,11.131
							c6.148,0,10.072-4.983,8.765-11.131c-1.307-6.148-7.35-11.131-13.497-11.131C103.172,242.755,99.248,247.739,100.554,253.886z
							"/>
					</g>
					<g>
						<g>
							<polygon style="fill:#FFFFFF;" points="238.053,272.333 70.65,272.333 71.025,276.613 238.428,276.613 							"/>
							<polygon style="fill:#407BFF;" points="164.758,276.11 71.485,276.11 71.199,272.836 164.471,272.836 							"/>
						</g>
						<g>
							<g>
								<polygon style="fill:#FFFFFF;" points="74.342,288.246 72.735,288.246 72.183,281.94 73.79,281.94 								"/>
								<polygon style="fill:#FFFFFF;" points="77.149,288.246 75.542,288.246 74.99,281.94 76.597,281.94 								"/>
							</g>
							<g>
								<polygon style="fill:#FFFFFF;" points="91.568,288.246 85.261,288.246 84.71,281.94 91.016,281.94 								"/>
								<polygon style="fill:#FFFFFF;" points="99.937,285.093 105.122,281.94 105.674,288.246 								"/>
								<polygon style="fill:#FFFFFF;" points="100.213,288.246 98.605,288.246 98.054,281.94 99.661,281.94 								"/>
								<g>
									<polygon style="fill:#FFFFFF;" points="117.644,285.093 111.907,281.94 112.459,288.246 									"/>
									<polygon style="fill:#FFFFFF;" points="117.919,288.246 119.527,288.246 118.975,281.94 117.368,281.94 									"/>
								</g>
								<g>
									<polygon style="fill:#FFFFFF;" points="129.375,281.822 126.555,285.625 132.861,285.625 									"/>
									<polygon style="fill:#FFFFFF;" points="133.217,288.364 133.076,286.757 126.537,286.757 126.678,288.364 									"/>
								</g>
							</g>
						</g>
						<g>
							<g>
								<path style="fill:#FFFFFF;" d="M239.061,288.761h-12.176l-0.653-7.454h12.172L239.061,288.761z M227.828,287.73h10.105
									l-0.471-5.391H227.36L227.828,287.73z"/>
							</g>
							<g>
								<polygon style="fill:#FFFFFF;" points="217.928,288.761 215.466,288.761 215.273,286.575 216.304,286.487 216.409,287.73 
									217.928,287.73 								"/>
							</g>
							<g>
								<polygon style="fill:#FFFFFF;" points="223.391,288.761 220.913,288.761 220.913,287.73 222.263,287.73 222.162,286.575 
									223.194,286.487 								"/>
							</g>
							<g>
								<polygon style="fill:#FFFFFF;" points="221.909,283.68 221.796,282.339 220.353,282.339 220.353,281.307 222.738,281.307 
									222.94,283.592 								"/>
							</g>
							<g>
								<polygon style="fill:#FFFFFF;" points="215.023,283.682 214.809,281.307 217.368,281.307 217.368,282.339 215.937,282.339 
									216.046,283.589 								"/>
							</g>
						</g>
					</g>
					<g>
						<polygon style="opacity:0.1;fill:#FFFFFF;" points="206.618,194.956 187.286,194.956 210.19,295.926 229.741,295.926 						
							"/>
					</g>
					<polygon style="opacity:0.1;fill:#FFFFFF;" points="116.243,295.926 93.119,194.956 73.787,194.956 96.692,295.926 					"/>
					<g>
						<polygon style="opacity:0.1;fill:#FFFFFF;" points="217.079,194.956 234.913,272.836 235.662,276.112 236.97,281.824 
							238.175,287.085 240.2,295.926 235.168,295.926 231.968,281.824 230.676,276.112 229.931,272.836 212.263,194.956 						"/>
					</g>
				</g>
				<g>
					<polygon style="fill:#407BFF;" points="233.042,194.956 62.123,194.956 61.325,185.826 232.243,185.826 					"/>
					<g>
						<path style="fill:#FFFFFF;" d="M74.234,190.456c0.137,1.558-1.016,2.82-2.574,2.82s-2.931-1.263-3.067-2.82
							c-0.137-1.558,1.016-2.821,2.574-2.821S74.098,188.899,74.234,190.456z"/>
						<path style="fill:#FFFFFF;" d="M82.68,190.456c0.136,1.558-1.016,2.82-2.574,2.82c-1.558,0-2.931-1.263-3.068-2.82
							c-0.136-1.558,1.016-2.821,2.574-2.821C81.17,187.636,82.544,188.899,82.68,190.456z"/>
						<path style="fill:#FFFFFF;" d="M91.125,190.456c0.136,1.558-1.016,2.82-2.574,2.82c-1.558,0-2.931-1.263-3.067-2.82
							c-0.136-1.558,1.016-2.821,2.574-2.821C89.615,187.636,90.989,188.899,91.125,190.456z"/>
					</g>
				</g>
			</g>
			<g style="opacity:0.1;">
				<polygon style="fill:#FFFFFF;" points="61.873,185.826 68.514,185.826 91.916,295.926 85.276,295.926 				"/>
				<polygon style="fill:#FFFFFF;" points="214.422,185.826 221.063,185.826 244.465,295.926 237.825,295.926 				"/>
			</g>
		</g>
	</g>
</g>
<g id="Button">
	<g>
		<path style="fill:#407BFF;" d="M178.554,233.489c1.027,11.744-7.66,21.264-19.404,21.264c-11.744,0-22.097-9.52-23.125-21.264
			c-1.027-11.744,7.66-21.264,19.404-21.264C167.173,212.225,177.526,221.746,178.554,233.489z"/>
		<g>
			<g>
				<polygon style="fill:#FFFFFF;" points="156.743,243.591 151.594,243.591 149.827,223.388 154.975,223.388 				"/>
				<polygon style="fill:#FFFFFF;" points="165.736,243.591 160.588,243.591 158.82,223.388 163.969,223.388 				"/>
			</g>
		</g>
	</g>
</g>
<g id="Character">
	<g>
		<g>
			<g>
				<g>
					<g>
						<g>
							<g>
								<path style="fill:#B25B52;" d="M236.054,217.195l-9.976,0.467l5.151,6.491c0,0,5.235-0.71,6.328-3.378L236.054,217.195z"/>
								<path style="fill:#B25B52;" d="M222.099,222.925l1.045,1.832c0.632,1.107,1.968,1.599,3.167,1.166l4.91-1.773l-5.142-6.488
									l-2.987,1.679C221.823,220.053,221.378,221.662,222.099,222.925z"/>
							</g>
							<g>
								<g>
									<path style="fill:#407BFF;" d="M293.264,196.796c-3.095-1.574-31.109,13.669-31.109,13.669l2.408,7.648
										c0,0,22.704-4.219,31.373-12.187C296.456,201.261,297.78,199.099,293.264,196.796z"/>
								</g>
								<path style="opacity:0.2;enable-background:new    ;" d="M291.083,203.812l-4.721,7.733
									c-13.267,5.263-17.384,5.459-17.384,5.459L291.083,203.812z"/>
							</g>
							<path style="fill:#407BFF;" d="M234.873,217.25c-1.125,0.367,0.559,4.776,1.622,5.127c1.063,0.35,20.671-0.977,28.78-4.404
								l-3.12-7.508C262.155,210.465,251.579,211.806,234.873,217.25z"/>
						</g>
						<g>
							<path style="fill:#407BFF;" d="M286.799,207.78c-4.59,7.876,2.789,13.385,4.217,37.08l30.479-0.053
								c-0.55-12.656-0.543-22.89,4.751-47.814c0.491-2.269-0.951-4.507-3.22-4.997c-0.294-0.064-0.595-0.096-0.896-0.095
								c-2.521,0.014-5.685,0.115-8.898,0.457c-5.075,0.434-10.115,1.219-15.082,2.349c-4.228,1.037-5.254,1.604-7.928,2.514
								C288.664,197.761,288.488,202.908,286.799,207.78z"/>
						</g>
						<polygon style="fill:#B25B52;" points="297.008,395.476 302.888,415.409 308.767,415.409 306.412,393.53 						"/>
						<path style="fill:#263238;" d="M289.896,246.451c0,0-19.621,37.345-12.939,92.79c0.193,1.598,0.554,3.175,1.049,4.706
							l18.273,56.547l12.488-0.795l-5.879-39.753c-2.155-14.977-4.997-24.31-4.691-31.827c0.659-16.582,10.381-44.053,18.628-61.682
							c4.289-9.169-3.755-20.513-3.755-20.513L289.896,246.451z"/>
						<path style="opacity:0.2;enable-background:new    ;" d="M304.589,341.645c-3.678-1.294-13.936-8.375-12.409-27.521
							l7.802-46.431L304.589,341.645z"/>
						<g>
							<path style="fill:#B25B52;" d="M359.39,212.225c2.311-0.121,4.593-6.411,4.593-6.411l-6.247-5.397l-1.398,8.572
								L359.39,212.225z"/>
							<path style="fill:#B25B52;" d="M357.676,200.39l6.307,5.424l3.409-3.754c0.317-0.437,0.262-1.04-0.129-1.413l-4.228-4.714
								c-0.216-0.206-0.557-0.205-0.771,0.003L357.676,200.39z"/>
						</g>
						<path style="fill:#407BFF;" d="M356.57,208.613l2.82,3.612c0,0-20.582,28.282-29.091,9.99
							c-3.783-8.133-10.749-17.07-11.049-20.32c-0.633-6.875,2.094-11.481,5.265-9.558c6.49,3.915,15.469,26.288,15.469,26.288
							C341.158,217.331,356.57,208.613,356.57,208.613z"/>
						<g>
							<path style="fill:#407BFF;" d="M321.602,243.26l0.855,2.961c0.115,0.23-0.153,0.467-0.537,0.464l-31.455,0.096
								c-0.3,0.019-0.549-0.148-0.569-0.329l-0.308-2.968c-0.013-0.2,0.241-0.381,0.57-0.374l30.907-0.098
								C321.276,242.992,321.48,243.087,321.602,243.26z"/>
						</g>
						<g style="opacity:0.5;">
							<path style="fill:#FFFFFF;" d="M321.602,243.26l0.855,2.961c0.115,0.23-0.153,0.467-0.537,0.464l-31.455,0.096
								c-0.3,0.019-0.549-0.148-0.569-0.329l-0.308-2.968c-0.013-0.2,0.241-0.381,0.57-0.374l30.907-0.098
								C321.276,242.992,321.48,243.087,321.602,243.26z"/>
						</g>
						<g>
							<path style="fill:#407BFF;" d="M315.613,246.987l0.913-0.003c0.173-0.011,0.314-0.093,0.298-0.202l-0.428-3.856
								c-0.007-0.109-0.168-0.199-0.351-0.197l-0.914-0.006c-0.173,0.011-0.314,0.093-0.297,0.211l0.428,3.847
								C315.278,246.889,315.44,246.989,315.613,246.987z"/>
							<path style="fill:#407BFF;" d="M292.903,247.083l0.913-0.003c0.173-0.011,0.314-0.093,0.298-0.202l-0.428-3.847
								c-0.008-0.118-0.169-0.209-0.342-0.207l-0.914,0.003c-0.173,0.011-0.314,0.093-0.298,0.202l0.428,3.847
								C292.569,246.994,292.721,247.085,292.903,247.083z"/>
							<path style="fill:#407BFF;" d="M303.303,247.016l0.913-0.003c0.173-0.011,0.314-0.093,0.298-0.202l-0.427-3.847
								c-0.008-0.118-0.169-0.208-0.342-0.207l-0.914,0.003c-0.173,0.011-0.314,0.093-0.298,0.202l0.427,3.847
								C302.969,246.928,303.121,247.019,303.303,247.016z"/>
						</g>
						<g>
							<path style="fill:#263238;" d="M301.183,191.239c-3.106,0.896-5.95,2.684-8.106,5.093c-1.141,1.275-1.827,3.168-2.44,4.765
								c0.939-0.123,1.858-0.038,2.797-0.161c-0.586,0.412-1.011,0.607-1.597,1.019c-0.317,1.318-0.16,2.718-0.016,4.066
								c2.055-0.046,2.385-0.607,4.44-0.654c1.056,1.028,1.953,2.43,2.623,3.742c0.263-1.475,1.25-2.858,2.445-3.762
								c2.078-1.572,7.03-0.206,9.561-0.823c0.906-1.57,1.559-2.912,2.465-4.482c-0.71-0.34-1.429-0.719-2.14-1.059
								c1.537-1.043,3.284-1.617,5.113-1.94c0.131-1.337,0.077-2.725-0.473-3.951c-0.55-1.226-1.534-2.283-2.784-2.775
								c-1.392-0.549-2.951-0.369-4.435-0.18C306.446,190.416,303.303,190.627,301.183,191.239z"/>
							<path style="fill:#B25B52;" d="M303.321,177.585c0.788,4.994,2.963,13.749,7.051,15.141c0,0,0.479,5.247-7.531,9.603
								c-8.846,4.817-5.872-2.3-5.872-2.3c4.357-3.87,2.894-7.509,0.782-10.579L303.321,177.585z"/>
							<path style="opacity:0.2;enable-background:new    ;" d="M301.963,182.64l-3.837,6.736c0.449,0.753,0.826,1.547,1.128,2.371
								c1.837-1.138,4.441-4.234,4.076-6.403C303.063,184.359,302.598,183.439,301.963,182.64z"/>
							<path style="fill:#B25B52;" d="M306.894,169.604c0.346,8.086,0.67,11.502-2.991,16.064
								c-5.458,6.839-15.497,5.516-18.214-2.31c-2.483-7.033-2.638-19.065,4.915-23.104c5.356-2.906,12.053-0.92,14.96,4.436
								C306.384,166.202,306.84,167.885,306.894,169.604z"/>
							<path style="fill:#9D2724;" d="M289.187,174.764c-0.347,1.574-0.911,3.092-1.675,4.511c0.745,0.373,1.617,0.401,2.385,0.078
								L289.187,174.764z"/>
							<path style="fill:#263238;" d="M302.517,156.247c-1.918-2.889-5.677-4.201-9.123-3.811c-4.145,0.469-8.008,3.329-9.386,7.266
								c-0.689,1.967-0.775,4.114-1.548,6.05c-0.426,1.066-1.224,2.158-2.369,2.244c-0.401,0.03-0.804-0.07-1.205-0.039
								c-1.407,0.108-2.199,2.04-1.41,3.209c0.789,1.17,2.659,1.289,3.731,0.371c0.592,0.163,1.206,0.498,1.81,0.608
								c0.941,0.171,1.911-0.256,2.618-0.9c0.707-0.644,1.198-1.485,1.678-2.312c1.042,0.214,2.027,0.326,2.988-0.13
								c1.121-0.531,1.669-1.787,2.124-2.941c1.261,1.083,2.839,1.74,4.473,1.437c0.141,1.128,0.932,2.203,1.776,2.965
								c0.844,0.762,2.083,1.122,3.165,0.772c-0.601,4.598,3.737,4.228,3.935,4.152c0.198-0.076,0.48-0.026,0.532,0.18
								c-0.92,1.601-1.511,3.673-1.769,5.502c-0.15,1.06-0.285,2.189,0.163,3.162c0.602,1.306,2.093,1.959,3.511,2.202
								c0.662,0.113,1.349,0.162,1.999-0.007c1.014-0.264,1.865-1.085,2.165-2.09c0.807,0.926,2.124,0.712,3.33,0.939
								c2.205,0.415,6.08-2.517,4.232-7.417c-0.397-1.052-1.841-1.271-2.963-1.345c1.02-0.063,1.913-0.89,2.484-1.737
								c0.572-0.848,1.857-5.92-3.209-7.349c-0.537-0.152-1.116-0.031-1.674-0.038c-0.968-0.011-1.934-0.108-2.885-0.29
								c1.375-2.031,1.134-5.06-0.35-7.013c-0.434-0.57-0.967-1.057-1.496-1.54c-0.354-0.323-0.716-0.65-1.151-0.852
								c-0.332-0.154-0.694-0.228-1.054-0.29c-1.028-0.179-2.071-0.274-3.114-0.283C303.7,157.122,302.986,156.954,302.517,156.247z
								"/>
							<path style="fill:#B25B52;" d="M309.918,175.402c-0.397,1.514-1.375,2.811-2.721,3.61c-1.798,1.035-3.177-0.455-3.137-2.409
								c0.062-1.765,1.064-4.434,3.078-4.668c1.458-0.143,2.757,0.924,2.899,2.382C310.073,174.683,310.032,175.053,309.918,175.402
								z"/>
							<path style="fill:#263238;" d="M296.774,169.958c-0.148,0.074-0.327,0.043-0.44-0.078c-1.273-1.31-3.525-0.934-3.545-0.929
								c-0.21,0.034-0.408-0.107-0.442-0.317c-0.034-0.21,0.108-0.408,0.317-0.442c0.112-0.024,2.694-0.408,4.232,1.167
								c0.149,0.15,0.149,0.392,0,0.542c-0.001,0-0.001,0.001-0.001,0.001L296.774,169.958z"/>
							<path style="fill:#263238;" d="M284.491,170.857c-0.125,0.055-0.269,0.037-0.377-0.045c-0.172-0.123-0.211-0.363-0.088-0.534
								c0.001-0.002,0.003-0.004,0.004-0.005c0.723-1.014,1.892-1.615,3.137-1.614c0.214,0.012,0.377,0.195,0.365,0.408
								c-0.012,0.214-0.195,0.377-0.408,0.365l0,0l0,0c-0.985,0.008-1.905,0.494-2.466,1.304
								C284.61,170.787,284.553,170.828,284.491,170.857z"/>
							<g>
								<path style="fill:#263238;" d="M285.892,173.636c-0.439,0.073-0.7,0.691-0.58,1.366c0.119,0.675,0.58,1.167,1.016,1.086
									c0.436-0.081,0.699-0.691,0.58-1.366C286.804,174.061,286.332,173.563,285.892,173.636z"/>
								<path style="fill:#263238;" d="M284.397,173.471l1.707,0.185C285.454,174.591,284.397,173.471,284.397,173.471z"/>
							</g>
							<g>
								<path style="fill:#263238;" d="M290.138,182.43c0.688,1.089,1.503,3.192,1.503,3.192c0.204-0.04,0.408-0.079,0.609-0.129
									c2.752-0.606,3.828-1.796,4.186-2.932c0.194-0.622,0.165-1.234,0.078-1.718c-0.095-0.561-0.29-0.94-0.29-0.94
									c-1.267,1.193-3.788,1.956-5.152,2.307C290.503,182.361,290.138,182.43,290.138,182.43z"/>
								<path style="fill:#FFFFFF;" d="M291.073,182.209l0.468,0.93c2.59-0.577,4.336-1.331,4.975-2.296
									c-0.095-0.561-0.29-0.94-0.29-0.94C294.958,181.095,292.437,181.858,291.073,182.209z"/>
								<path style="fill:#9D2724;" d="M292.25,185.493c2.752-0.606,3.828-1.796,4.186-2.932c-0.93,0.243-2.024,0.639-2.922,1.279
									C292.826,184.326,292.457,184.924,292.25,185.493z"/>
							</g>
							<g>
								<path style="fill:#263238;" d="M293.008,172.693c-0.44,0.072-0.7,0.691-0.58,1.366c0.119,0.675,0.58,1.167,1.016,1.086
									c0.436-0.081,0.7-0.691,0.58-1.366C293.919,173.118,293.447,172.621,293.008,172.693z"/>
								<path style="fill:#263238;" d="M291.512,172.529l1.707,0.185C292.569,173.648,291.512,172.529,291.512,172.529z"/>
							</g>
						</g>
					</g>
				</g>
				<path style="opacity:0.2;enable-background:new    ;" d="M295.541,249.495c-1.786,5.648-2.792,6.913-4.578,12.56
					C291.172,255.964,292.31,254.758,295.541,249.495z"/>
			</g>
			<g>
				<polygon style="fill:#B25B52;" points="352.781,405.499 356.759,402.206 349.943,390.949 345.036,383.688 337.821,388.582 
					344.736,396.413 				"/>
			</g>
			<g>
				<path style="fill:#263238;" d="M296.437,247.083l-1.152,78.241c0.131,8.965,3.512,17.577,9.516,24.235l35.359,44.242
					l8.553-6.389l-4.971-11.452c0,0-5.855-13.531-11.961-25.621c-3.927-7.776-8.989-14.923-14.956-21.269l0,0
					c1.698-9.995,8.356-39.609,8.85-49.84c0,0,7.997-9.539-3.219-33.009L296.437,247.083z"/>
			</g>
			<path style="opacity:0.2;enable-background:new    ;" d="M312.132,250.278c1.786,5.647,2.469,6.217,4.255,11.864
				C316.025,258.113,315.363,255.541,312.132,250.278z"/>
		</g>
		<g>
			<path style="fill:#263238;" d="M349.27,404.025l5.797-5.627c0.192-0.206,0.549-0.203,0.805,0.008l5.788,4.804
				c0.596,0.558,0.68,1.398,0.191,1.894c-2.057,1.919-3.162,2.735-5.71,5.207c-1.568,1.525-5.208,4.97-7.179,7.235
				c-1.971,2.264-4.639-0.015-4.052-1.177c2.667-5.205,3.773-8.446,3.854-11.125C348.775,404.774,348.953,404.346,349.27,404.025z"
				/>
			<g>
				<path style="fill:#407BFF;" d="M348.119,408.42c0.513-0.563,0.966-1.177,1.352-1.834c0.043-0.065,0.041-0.15-0.006-0.212
					c-0.033-0.07-0.101-0.117-0.178-0.123c-0.333,0.061-3.234,0.672-3.674,1.71c-0.111,0.239-0.082,0.52,0.076,0.731
					c0.196,0.357,0.568,0.583,0.976,0.592C347.238,409.183,347.756,408.876,348.119,408.42z M348.909,406.737
					c-0.9,1.302-1.685,2.116-2.257,2.123c-0.26-0.019-0.49-0.178-0.6-0.415c-0.081-0.101-0.103-0.237-0.057-0.358
					C346.223,407.538,347.748,407.014,348.909,406.737z"/>
				<path style="fill:#407BFF;" d="M349.477,406.576c0,0,0.033-0.047,0.052-0.075c0.017-0.069,0-0.141-0.044-0.197
					c-0.084-0.058-1.723-1.953-2.934-1.904c-0.319-0.001-0.618,0.154-0.8,0.416c-0.241,0.26-0.272,0.652-0.073,0.947
					c0.539,0.802,2.736,1.13,3.703,0.872C349.42,406.628,349.454,406.607,349.477,406.576z M346.134,404.984
					c0.113-0.118,0.269-0.185,0.433-0.185c0.929,0.236,1.757,0.766,2.362,1.509c-1.034,0.124-2.077-0.151-2.915-0.77
					c-0.094-0.065-0.126-0.239,0.052-0.476L346.134,404.984z"/>
			</g>
		</g>
		<g>
			<path style="fill:#263238;" d="M300.965,412.365l7.93-0.107c0.304-0.019,0.581,0.249,0.625,0.604l1.761,8.061
				c0.053,0.88-0.505,1.601-1.257,1.626c-3.037-0.023-4.508-0.204-8.34-0.158c-2.361,0.031-7.771,0.03-10.997,0.341
				c-3.226,0.311-3.624-3.456-2.302-3.93c5.954-2.1,9.226-3.819,11.279-5.857C300.021,412.585,300.478,412.381,300.965,412.365z"/>
			<g>
				<path style="fill:#407BFF;" d="M299.051,415.962c0.101-0.85,0.112-1.709,0.034-2.562c-0.003-0.088-0.06-0.164-0.144-0.19
					c-0.076-0.042-0.169-0.041-0.243,0.004c-0.264,0.273-2.516,2.732-2.239,3.97c0.055,0.291,0.266,0.529,0.548,0.619
					c0.413,0.198,0.901,0.161,1.279-0.098C298.745,417.237,299.017,416.617,299.051,415.962z M298.671,413.906
					c0.03,1.78-0.154,3.038-0.673,3.419c-0.25,0.153-0.564,0.158-0.82,0.014c-0.14-0.039-0.249-0.149-0.286-0.29
					C296.74,416.398,297.791,414.92,298.671,413.906z"/>
				<path style="fill:#407BFF;" d="M299.085,413.387c0,0-0.001-0.064-0.002-0.102c-0.03-0.074-0.092-0.13-0.169-0.151
					c-0.115,0.002-2.855-0.657-3.929,0.181c-0.292,0.207-0.464,0.546-0.459,0.904c-0.05,0.396,0.179,0.774,0.553,0.913
					c1.018,0.38,3.241-0.758,3.956-1.628C299.066,413.473,299.084,413.431,299.085,413.387z M294.985,414.122
					c0.026-0.182,0.125-0.345,0.274-0.453c1.004-0.392,2.108-0.451,3.148-0.168c-0.864,0.791-1.998,1.222-3.169,1.206
					c-0.128,0.002-0.271-0.136-0.264-0.469L294.985,414.122z"/>
			</g>
		</g>
	</g>
</g>
</svg>
