<?xml version="1.0" encoding="UTF-8"?>
<svg version="1.1" xmlns="http://www.w3.org/2000/svg" width="64" height="64">
<path d="M0 0 C7.76675969 5.2863574 13.38019908 11.09474305 15.95703125 20.33203125 C16.97849667 31.79382348 16.07180915 40.5604769 8.58203125 49.64453125 C3.05238769 55.57504449 -2.65763398 58.94121385 -10.8125 59.66796875 C-22.2900419 59.92562211 -29.79553736 58.0735478 -38.3203125 50.125 C-45.07902557 43.09042109 -46.45687681 35.78457741 -46.40649414 26.37695312 C-46.15072802 16.47368908 -42.06373178 10.07747024 -35.04296875 3.33203125 C-25.66852822 -3.93794304 -10.69212687 -5.78560593 0 0 Z " fill="#C49102" transform="translate(47.04296875,3.66796875)"/>
<path d="M0 0 C2.109375 0.48046875 2.109375 0.48046875 3.109375 1.48046875 C3.515625 3.6796875 3.515625 3.6796875 3.109375 6.48046875 C1.32274481 8.62964565 -0.35458003 10.41950722 -2.390625 12.29296875 C-2.91527344 12.79505859 -3.43992187 13.29714844 -3.98046875 13.81445312 C-5.27285032 15.04809008 -6.58032099 16.265885 -7.890625 17.48046875 C-5.05227657 20.86502856 -2.28384335 24.1214433 0.984375 27.10546875 C3.109375 29.48046875 3.109375 29.48046875 3.421875 32.29296875 C3.31875 33.01484375 3.215625 33.73671875 3.109375 34.48046875 C0.86083984 35.18212891 0.86083984 35.18212891 -1.890625 35.48046875 C-3.94287109 34.20458984 -3.94287109 34.20458984 -5.9140625 32.25390625 C-6.62433594 31.55136719 -7.33460937 30.84882812 -8.06640625 30.125 C-8.79214844 29.37605469 -9.51789062 28.62710938 -10.265625 27.85546875 C-11.01457031 27.12972656 -11.76351563 26.40398438 -12.53515625 25.65625 C-13.23769531 24.94597656 -13.94023437 24.23570313 -14.6640625 23.50390625 C-15.30778809 22.85341309 -15.95151367 22.20291992 -16.61474609 21.53271484 C-17.890625 19.48046875 -17.890625 19.48046875 -17.77880859 16.95092773 C-16.27507264 12.76832626 -13.26049257 10.23415439 -10.140625 7.16796875 C-9.51929688 6.52279297 -8.89796875 5.87761719 -8.2578125 5.21289062 C-3.6343844 0.60409362 -3.6343844 0.60409362 0 0 Z " fill="#FCFAF5" transform="translate(37.890625,14.51953125)"/>
</svg>
