<?xml version="1.0" encoding="utf-8"?>
<!-- Generator: Adobe Illustrator 27.5.0, SVG Export Plug-In . SVG Version: 6.00 Build 0)  -->
<svg version="1.1" xmlns="http://www.w3.org/2000/svg" xmlns:xlink="http://www.w3.org/1999/xlink" x="0px" y="0px"
	 viewBox="0 0 500 500" style="enable-background:new 0 0 500 500;" xml:space="preserve">
<g id="BACKGROUND">
	<rect style="fill:#FFFFFF;" width="500" height="500"/>
</g>
<g id="OBJECTS">
	<g>
		<g>
			<rect x="67.553" y="335.079" style="fill:none;" width="364.894" height="35.463"/>
			<text transform="matrix(1 0 0 1 94.2627 366.6855)"><tspan x="0" y="0" style="fill:#302B45; font-family:'Exo-Medium'; font-size:41.4251px;">ABSTRACT</tspan><tspan x="202.61" y="0" style="fill:#302B45; font-family:'Exo-Black'; font-size:41.4251px;">LOGO</tspan></text>
			<rect x="153.04" y="378.792" style="fill:none;" width="193.919" height="22.318"/>
			<text transform="matrix(1 0 0 1 154.5874 395.083)" style="fill:#F55600; font-family:'Poppins-Medium'; font-size:22.015px;">SLOGAN HERE</text>
		</g>
		<g>
			
				<radialGradient id="SVGID_1_" cx="250" cy="194.6465" r="64.8552" gradientTransform="matrix(1 0 0 0.3257 0 243.8441)" gradientUnits="userSpaceOnUse">
				<stop  offset="0" style="stop-color:#000000;stop-opacity:0.22"/>
				<stop  offset="0.8785" style="stop-color:#000000;stop-opacity:0"/>
			</radialGradient>
			<ellipse style="fill:url(#SVGID_1_);" cx="250" cy="307.24" rx="64.85" ry="21.125"/>
			<g>
				
					<linearGradient id="SVGID_00000171720493022675178380000003842679487610768288_" gradientUnits="userSpaceOnUse" x1="373.5722" y1="311.956" x2="281.0168" y2="81.6963" gradientTransform="matrix(-1 0 0 1 653.6244 0)">
					<stop  offset="0" style="stop-color:#471499"/>
					<stop  offset="1" style="stop-color:#FF0095"/>
				</linearGradient>
				<path style="fill:url(#SVGID_00000171720493022675178380000003842679487610768288_);" d="M250,307.241
					c20.881-76.753,169.872-74.496,134.368-206.921C359.486,162.2,250,172.358,250,307.241z"/>
				
					<radialGradient id="SVGID_00000166667273535060969830000008295372126691156152_" cx="398.7333" cy="123.6352" r="104.7893" gradientTransform="matrix(-1 0 0 1 653.6244 0)" gradientUnits="userSpaceOnUse">
					<stop  offset="0" style="stop-color:#FFFFFF"/>
					<stop  offset="1" style="stop-color:#FFFFFF;stop-opacity:0"/>
				</radialGradient>
				<path style="fill:url(#SVGID_00000166667273535060969830000008295372126691156152_);" d="M254.016,289.223
					c12.367-21.181,34.841-35.793,58.361-51.083c42.453-27.599,86.293-56.106,70.949-128.011
					c-10.464,18.642-28.514,32.783-47.481,47.642C300.022,185.834,259.775,217.361,254.016,289.223z"/>
				
					<radialGradient id="SVGID_00000020364079970843145870000010725441154494552763_" cx="345.4953" cy="87.7043" r="162.0512" gradientTransform="matrix(-1 0 0 1 653.6244 0)" gradientUnits="userSpaceOnUse">
					<stop  offset="0" style="stop-color:#FFFFFF"/>
					<stop  offset="1" style="stop-color:#FFFFFF;stop-opacity:0"/>
				</radialGradient>
				<path style="fill:url(#SVGID_00000020364079970843145870000010725441154494552763_);" d="M250,307.241
					c20.881-76.753,169.872-74.496,134.368-206.921C398.991,212.804,262.416,190.418,250,307.241z"/>
			</g>
			<g>
				
					<linearGradient id="SVGID_00000035488611374960558890000002384983075219534510_" gradientUnits="userSpaceOnUse" x1="219.9478" y1="311.956" x2="127.3924" y2="81.6963">
					<stop  offset="0" style="stop-color:#991414"/>
					<stop  offset="1" style="stop-color:#FF7B00"/>
				</linearGradient>
				<path style="fill:url(#SVGID_00000035488611374960558890000002384983075219534510_);" d="M250,307.241
					c-20.881-76.753-169.872-74.496-134.368-206.921C140.514,162.2,250,172.358,250,307.241z"/>
				
					<radialGradient id="SVGID_00000165228336556422531650000000828532670132522119_" cx="245.1089" cy="123.6352" r="104.7893" gradientUnits="userSpaceOnUse">
					<stop  offset="0" style="stop-color:#FFFFFF"/>
					<stop  offset="1" style="stop-color:#FFFFFF;stop-opacity:0"/>
				</radialGradient>
				<path style="fill:url(#SVGID_00000165228336556422531650000000828532670132522119_);" d="M245.984,289.223
					c-12.367-21.181-34.841-35.793-58.361-51.083c-42.453-27.599-86.293-56.106-70.948-128.011
					c10.464,18.642,28.514,32.783,47.481,47.642C199.977,185.834,240.225,217.361,245.984,289.223z"/>
				
					<radialGradient id="SVGID_00000016055437838194587900000016856865088129523607_" cx="191.8709" cy="87.7043" r="162.0512" gradientUnits="userSpaceOnUse">
					<stop  offset="0" style="stop-color:#FFFFFF"/>
					<stop  offset="1" style="stop-color:#FFFFFF;stop-opacity:0"/>
				</radialGradient>
				<path style="fill:url(#SVGID_00000016055437838194587900000016856865088129523607_);" d="M250,307.241
					c-20.881-76.753-169.872-74.496-134.368-206.921C101.009,212.804,237.584,190.418,250,307.241z"/>
			</g>
			<g>
				
					<linearGradient id="SVGID_00000125578800337637056100000000044033002881442478_" gradientUnits="userSpaceOnUse" x1="191.4353" y1="333.1266" x2="126.0504" y2="170.4618" gradientTransform="matrix(0.9506 -0.3103 0.3103 0.9506 -54.4968 59.7284)">
					<stop  offset="0" style="stop-color:#991414"/>
					<stop  offset="1" style="stop-color:#FF7B00"/>
				</linearGradient>
				<path style="fill:url(#SVGID_00000125578800337637056100000000044033002881442478_);" d="M250,307.241
					c-30.849-46.965-130.408-12.787-135.596-109.499C144.679,233.842,220.43,216.662,250,307.241z"/>
				
					<radialGradient id="SVGID_00000183242030812295253830000009133774977021148299_" cx="210.7141" cy="199.6078" r="69.2866" gradientTransform="matrix(0.9506 -0.3103 0.3103 0.9506 -54.4968 59.7284)" gradientUnits="userSpaceOnUse">
					<stop  offset="0" style="stop-color:#FFFFFF"/>
					<stop  offset="1" style="stop-color:#FFFFFF;stop-opacity:0"/>
				</radialGradient>
				<path style="fill:url(#SVGID_00000183242030812295253830000009133774977021148299_);" d="M240.269,292.024
					c-13.036-9.623-30.222-14.211-46.992-18.69c-17.807-4.753-36.219-9.67-50.196-20.398
					c-13.517-10.374-21.493-25.427-24.238-45.837c11.007,9.062,25.329,14.274,40.325,19.731
					C188.144,237.374,220.584,249.181,240.269,292.024z"/>
				
					<radialGradient id="SVGID_00000144323444388315409810000007778524070250121641_" cx="171.6012" cy="174.707" r="114.4787" gradientTransform="matrix(0.9506 -0.3103 0.3103 0.9506 -54.4968 59.7284)" gradientUnits="userSpaceOnUse">
					<stop  offset="0" style="stop-color:#FFFFFF"/>
					<stop  offset="1" style="stop-color:#FFFFFF;stop-opacity:0"/>
				</radialGradient>
				<path style="fill:url(#SVGID_00000144323444388315409810000007778524070250121641_);" d="M250,307.241
					c-30.849-46.965-130.408-12.787-135.596-109.499C129.244,276.485,216.052,231.511,250,307.241z"/>
			</g>
			<g>
				
					<linearGradient id="SVGID_00000122689030090341651700000008914154913231871377_" gradientUnits="userSpaceOnUse" x1="368.554" y1="390.9427" x2="303.1692" y2="228.2779" gradientTransform="matrix(-0.9506 -0.3103 -0.3103 0.9506 740.8062 59.7284)">
					<stop  offset="0" style="stop-color:#471499"/>
					<stop  offset="1" style="stop-color:#FF0095"/>
				</linearGradient>
				<path style="fill:url(#SVGID_00000122689030090341651700000008914154913231871377_);" d="M250,307.241
					c30.849-46.965,130.408-12.787,135.596-109.499C355.321,233.842,279.569,216.662,250,307.241z"/>
				
					<radialGradient id="SVGID_00000059287254916066680760000004956499428822188420_" cx="387.8329" cy="257.4239" r="69.2866" gradientTransform="matrix(-0.9506 -0.3103 -0.3103 0.9506 740.8062 59.7284)" gradientUnits="userSpaceOnUse">
					<stop  offset="0" style="stop-color:#FFFFFF"/>
					<stop  offset="1" style="stop-color:#FFFFFF;stop-opacity:0"/>
				</radialGradient>
				<path style="fill:url(#SVGID_00000059287254916066680760000004956499428822188420_);" d="M259.731,292.024
					c13.036-9.623,30.222-14.211,46.992-18.69c17.807-4.753,36.219-9.67,50.196-20.398c13.517-10.374,21.493-25.427,24.238-45.837
					c-11.007,9.062-25.329,14.274-40.325,19.731C311.856,237.374,279.416,249.181,259.731,292.024z"/>
				
					<radialGradient id="SVGID_00000104685455218862764040000013796446331140378281_" cx="348.72" cy="232.523" r="114.4787" gradientTransform="matrix(-0.9506 -0.3103 -0.3103 0.9506 740.8062 59.7284)" gradientUnits="userSpaceOnUse">
					<stop  offset="0" style="stop-color:#FFFFFF"/>
					<stop  offset="1" style="stop-color:#FFFFFF;stop-opacity:0"/>
				</radialGradient>
				<path style="fill:url(#SVGID_00000104685455218862764040000013796446331140378281_);" d="M250,307.241
					c30.849-46.965,130.408-12.787,135.596-109.499C370.756,276.485,283.948,231.511,250,307.241z"/>
			</g>
			
				<radialGradient id="SVGID_00000047051797622251966390000002618353055131760005_" cx="250" cy="17.5531" r="64.8552" gradientTransform="matrix(1 0 0 0.3257 0 243.8441)" gradientUnits="userSpaceOnUse">
				<stop  offset="0" style="stop-color:#000000;stop-opacity:0.22"/>
				<stop  offset="0.8785" style="stop-color:#000000;stop-opacity:0"/>
			</radialGradient>
			
				<ellipse style="fill:url(#SVGID_00000047051797622251966390000002618353055131760005_);" cx="250" cy="249.561" rx="64.85" ry="21.125"/>
			<g>
				
					<radialGradient id="SVGID_00000073003037166020436160000013555771522985276603_" cx="261.2124" cy="158.2346" r="82.8943" gradientUnits="userSpaceOnUse">
					<stop  offset="0" style="stop-color:#6F64A1"/>
					<stop  offset="1" style="stop-color:#302B45"/>
				</radialGradient>
				<circle style="fill:url(#SVGID_00000073003037166020436160000013555771522985276603_);" cx="250" cy="187.549" r="54.164"/>
				
					<radialGradient id="SVGID_00000083060866083378670490000012040023525801022110_" cx="301.7186" cy="93.9903" r="114.8279" gradientUnits="userSpaceOnUse">
					<stop  offset="0" style="stop-color:#FFFFFF"/>
					<stop  offset="1" style="stop-color:#FFFFFF;stop-opacity:0"/>
				</radialGradient>
				<circle style="fill:url(#SVGID_00000083060866083378670490000012040023525801022110_);" cx="250" cy="187.549" r="50.603"/>
				
					<radialGradient id="SVGID_00000114795187280340752080000005144063804805700503_" cx="197.8773" cy="278.8437" r="120.1392" gradientUnits="userSpaceOnUse">
					<stop  offset="0" style="stop-color:#FFFFFF"/>
					<stop  offset="1" style="stop-color:#FFFFFF;stop-opacity:0"/>
				</radialGradient>
				<circle style="fill:url(#SVGID_00000114795187280340752080000005144063804805700503_);" cx="253.751" cy="171.66" r="34.278"/>
			</g>
		</g>
	</g>
</g>
</svg>
