<svg xmlns="http://www.w3.org/2000/svg" version="1.1" xmlns:xlink="http://www.w3.org/1999/xlink" xmlns:svgjs="http://svgjs.dev/svgjs" width="1500" height="1000" viewBox="0 0 2000 1200"><rect width="2000" height="1500" fill="transparent"></rect><g transform="matrix(0.75,0,0,0.75,249.090909090909,278.98548387096776)"><svg viewBox="0 0 396 248" data-background-color="#ffffff" preserveAspectRatio="xMidYMid meet" height="1252" width="2000" xmlns="http://www.w3.org/2000/svg" xmlns:xlink="http://www.w3.org/1999/xlink"><g id="tight-bounds" transform="matrix(1,0,0,1,0.2400000000000091,0.4000000000000057)"><svg viewBox="0 0 395.52 247.2" height="247.2" width="395.52"><g><svg></svg></g><g><svg viewBox="0 0 395.52 247.2" height="247.2" width="395.52"><g transform="matrix(1,0,0,1,75.54432,85.6032883716891)"><svg viewBox="0 0 244.43135999999998 75.99342325662178" height="75.99342325662178" width="244.43135999999998"><g><svg viewBox="0 0 244.43135999999998 75.99342325662178" height="75.99342325662178" width="244.43135999999998"><g><svg viewBox="0 0 244.43135999999998 75.99342325662178" height="75.99342325662178" width="244.43135999999998"><g><svg viewBox="0 0 244.43135999999998 75.99342325662178" height="75.99342325662178" width="244.43135999999998"><g id="textblocktransform"><svg viewBox="0 0 244.43135999999998 75.99342325662178" height="75.99342325662178" width="244.43135999999998" id="textblock"><g><svg viewBox="0 0 244.43135999999998 75.99342325662178" height="75.99342325662178" width="244.43135999999998"><g transform="matrix(1,0,0,1,0,0)"><svg width="244.43135999999998" viewBox="3.3 -35.4 115.14 35.8" height="75.99342325662178" data-palette-color="#023e8a"><path d="M11.85 0.4Q8 0.4 5.65-2.25 3.3-4.9 3.3-9.25L3.3-9.25 3.3-34.5Q3.3-35 3.8-35L3.8-35 6.35-35Q6.85-35 6.85-34.5L6.85-34.5 6.85-8.85Q6.85-6.1 8.22-4.4 9.6-2.7 11.85-2.7L11.85-2.7Q14.15-2.7 15.55-4.4 16.95-6.1 16.95-8.85L16.95-8.85 16.95-34.5Q16.95-35 17.45-35L17.45-35 20-35Q20.5-35 20.5-34.5L20.5-34.5 20.5-9.25Q20.5-4.9 18.13-2.25 15.75 0.4 11.85 0.4L11.85 0.4ZM34.2 0.4Q30.5 0.4 28.2-2.05 25.9-4.5 25.9-8.45L25.9-8.45 25.9-9.6Q25.9-10.1 26.4-10.1L26.4-10.1 28.85-10.1Q29.35-10.1 29.35-9.6L29.35-9.6 29.35-8.6Q29.35-5.95 30.7-4.33 32.05-2.7 34.2-2.7L34.2-2.7Q36.3-2.7 37.7-4.25 39.1-5.8 39.1-8.35L39.1-8.35Q39.1-10.05 38.42-11.28 37.75-12.5 36.67-13.43 35.6-14.35 33.1-16.25L33.1-16.25Q30.6-18.1 29.15-19.43 27.7-20.75 26.77-22.6 25.85-24.45 25.85-26.95L25.85-26.95Q25.85-30.85 28.1-33.13 30.35-35.4 33.95-35.4L33.95-35.4Q37.75-35.4 40.02-32.93 42.3-30.45 42.3-26.35L42.3-26.35 42.3-25.1Q42.3-24.6 41.8-24.6L41.8-24.6 39.3-24.6Q38.8-24.6 38.8-25.1L38.8-25.1 38.8-26.4Q38.8-29.05 37.47-30.68 36.15-32.3 33.95-32.3L33.95-32.3Q31.95-32.3 30.65-30.88 29.35-29.45 29.35-26.85L29.35-26.85Q29.35-25.3 29.92-24.13 30.5-22.95 31.65-21.9 32.8-20.85 35.05-19.15L35.05-19.15Q38.05-16.95 39.52-15.58 41-14.2 41.8-12.58 42.6-10.95 42.6-8.65L42.6-8.65Q42.6-4.55 40.25-2.08 37.9 0.4 34.2 0.4L34.2 0.4ZM65.84 0.4Q61.99 0.4 59.67-1.95 57.34-4.3 57.34-8.25L57.34-8.25 57.34-26.8Q57.34-30.7 59.67-33.05 61.99-35.4 65.84-35.4L65.84-35.4Q69.74-35.4 72.07-33.08 74.39-30.75 74.39-26.8L74.39-26.8 74.39-25.95Q74.39-25.45 73.89-25.45L73.89-25.45 71.29-25.3Q70.79-25.3 70.79-25.8L70.79-25.8 70.79-27.05Q70.79-29.4 69.44-30.85 68.09-32.3 65.84-32.3L65.84-32.3Q63.64-32.3 62.27-30.85 60.89-29.4 60.89-27.05L60.89-27.05 60.89-7.95Q60.89-5.6 62.27-4.15 63.64-2.7 65.84-2.7L65.84-2.7Q68.09-2.7 69.44-4.15 70.79-5.6 70.79-7.95L70.79-7.95 70.79-9.2Q70.79-9.7 71.29-9.7L71.29-9.7 73.89-9.55Q74.39-9.55 74.39-9.05L74.39-9.05 74.39-8.25Q74.39-4.3 72.04-1.95 69.69 0.4 65.84 0.4L65.84 0.4ZM89.19-35.05Q92.84-35.05 95.09-32.38 97.34-29.7 97.34-25.35L97.34-25.35Q97.34-21.05 95.14-18.43 92.94-15.8 89.34-15.8L89.34-15.8 84.19-15.8Q83.99-15.8 83.99-15.6L83.99-15.6 83.99-0.5Q83.99 0 83.49 0L83.49 0 80.94 0Q80.44 0 80.44-0.5L80.44-0.5 80.44-34.55Q80.44-35.05 80.94-35.05L80.94-35.05 89.19-35.05ZM88.74-18.7Q90.99-18.7 92.39-20.5 93.79-22.3 93.79-25.3L93.79-25.3Q93.79-28.3 92.39-30.13 90.99-31.95 88.74-31.95L88.74-31.95 84.19-31.95Q83.99-31.95 83.99-31.75L83.99-31.75 83.99-18.9Q83.99-18.7 84.19-18.7L84.19-18.7 88.74-18.7ZM118.44-32.4Q118.44-31.9 117.94-31.9L117.94-31.9 106.34-31.9Q106.14-31.9 106.14-31.7L106.14-31.7 106.14-19.3Q106.14-19.1 106.34-19.1L106.34-19.1 113.64-19.1Q114.14-19.1 114.14-18.6L114.14-18.6 114.14-16.45Q114.14-15.95 113.64-15.95L113.64-15.95 106.34-15.95Q106.14-15.95 106.14-15.75L106.14-15.75 106.14-3.3Q106.14-3.1 106.34-3.1L106.34-3.1 117.94-3.1Q118.44-3.1 118.44-2.6L118.44-2.6 118.44-0.5Q118.44 0 117.94 0L117.94 0 103.09 0Q102.59 0 102.59-0.5L102.59-0.5 102.59-34.5Q102.59-35 103.09-35L103.09-35 117.94-35Q118.44-35 118.44-34.5L118.44-34.5 118.44-32.4Z" opacity="1" transform="matrix(1,0,0,1,0,0)" fill="#023e8a" class="wordmark-text-0" data-fill-palette-color="primary" id="text-0"></path></svg></g></svg></g></svg></g></svg></g></svg></g></svg></g></svg></g><g><path d="M245.816 0c68.262 0 123.6 55.338 123.6 123.6 0 68.262-55.338 123.6-123.6 123.6-51.636 0-95.876-31.663-114.364-76.633h3.715c18.288 43.031 60.945 73.207 110.649 73.206 66.37 0 120.173-53.803 120.173-120.173 0-66.37-53.803-120.173-120.173-120.173-49.704 0-92.361 30.176-110.649 73.206l-3.715 0c18.488-44.97 62.728-76.633 114.364-76.633z" fill="#098dd4" stroke="transparent" data-fill-palette-color="tertiary"></path></g></svg></g><defs></defs></svg><rect width="395.52" height="247.2" fill="none" stroke="none" visibility="hidden"></rect></g></svg></g></svg> 